<svg xmlns="http://www.w3.org/2000/svg" viewBox="0 0 1024 1024" fill="currentColor"><path d="M218.81 499.65V668l197.41 114a111.49 111.49 0 1 1-15.09 81.36L140.81 713V499.65zM510.5 808a33.5 33.5 0 1 0 33.5 33.5 33.5 33.5 0 0 0-33.5-33.5zm333-615a111.52 111.52 0 0 1 38.69 216.11V713l-169 97.55-39-67.55 130-75V408.87A111.52 111.52 0 0 1 843.5 193zm-333 112 168 96.75v193.5L510.5 692l-168-96.75v-193.5zm0 90-90 51.83v103.33l90 51.83 90-51.83V446.84zm1-324 162.94 94-39 67.55L511.48 161 289.89 288.69A112.94 112.94 0 0 1 291 304.5a111.48 111.48 0 1 1-38.5-84.29zm-332 200a33.5 33.5 0 1 0 33.5 33.5 33.5 33.5 0 0 0-33.5-33.5zm664 0a33.5 33.5 0 1 0 33.5 33.5 33.5 33.5 0 0 0-33.5-33.5z"/></svg>